<svg width="64" height="64" viewBox="0 0 64 64" fill="none" xmlns="http://www.w3.org/2000/svg"><g clip-path="url(#a)"><path d="m48.12 37.374 14.614 14.71c-7.314 23.641-31.483 5.23-18.352-7.49 2.64-2.558 3.908-5.188 3.738-7.22Zm.626 6.53c-1.317.947-2.371 1.93-3.196 2.922 3.93.493 10.99 5.85 12.477 9.731.621-.945 1.188-2.061 1.678-3.367l-10.959-9.287Zm7.893 14.398c-4.014-.47-10.797-6.184-12.281-9.77-4.846 8.454 5.612 16.647 12.282 9.77ZM39.89 38.855a682.601 682.601 0 0 1 4.847 3.758l-4.191 6.985A241.672 241.672 0 0 1 32 44.291a242.297 242.297 0 0 1-8.545 5.307l-4.191-6.985a684.886 684.886 0 0 1 4.847-3.758C8.019 27.08-3.617 13.663 1.034.5 5.844 11.774 18.596 22.41 32 32.79 45.404 22.41 58.157 11.773 62.966.5c4.652 13.162-6.985 26.578-23.077 38.355Zm-20.27 5.738c13.13 12.72-11.04 31.132-18.352 7.491l14.613-14.71c-.17 2.032 1.099 4.662 3.739 7.22Zm.023 3.94c-1.484 3.585-8.267 9.298-12.282 9.769 6.67 6.877 17.128-1.316 12.282-9.77ZM4.295 53.19c.49 1.306 1.057 2.422 1.678 3.367 1.488-3.882 8.547-9.238 12.477-9.73-.824-.993-1.879-1.976-3.196-2.923L4.295 53.19Z" fill="#fff"/></g><defs><clipPath id="a"><path fill="#fff" d="M0 0h64v64H0z"/></clipPath></defs></svg>
