<svg width="164" height="179" viewBox="0 0 164 179" fill="none" xmlns="http://www.w3.org/2000/svg"><path d="M145.579 25.381c1.185-1.849 2.252-3.769 3.319-5.69-.806.878-1.6 1.755-2.382 2.644a57.722 57.722 0 0 0-2.893 3.485c-1.659 2.181-3.117 4.516-4.717 6.745a79.578 79.578 0 0 1-1.186 1.612c-.545-1.364-1.055-2.727-1.386-4.137-.285-1.28-.415-2.584-.451-3.9-.035-1.553.059-3.105.344-4.646.296-1.6.782-3.189 1.588-4.6a12.408 12.408 0 0 1 2.667-3.212c1.114-.972 2.383-1.742 3.627-2.536 1.446-.925 2.893-1.873 4.351-2.786 2.37-1.481 4.8-2.868 7.183-4.326a313.134 313.134 0 0 0 5.322-3.379c-.178 2.146-.344 4.291-.474 6.425-.166 2.56-.261 5.12-.498 7.693-.225 2.513-.569 5.05-1.553 7.349a12.55 12.55 0 0 1-1.553 2.679c-.723.924-1.612 1.718-2.548 2.442-1.577 1.22-3.307 2.228-5.097 3.093a42.307 42.307 0 0 1-5.121 2.05c-1.304.427-2.619.783-3.935 1.15a171.493 171.493 0 0 1 2.999-4.61c.794-1.186 1.624-2.347 2.394-3.544Z" fill="#fff"/><path d="M158.547 26.27c-.202 1.221-.38 2.395-.641 3.651-.379 1.79-.924 3.758-1.801 5.287-.581 1.007-1.316 1.825-2.217 2.584-1.079.9-2.406 1.707-3.698 2.394-1.458.783-2.857 1.41-4.421 1.897-1.577.498-3.319.83-4.73 1.007-1.292.154-2.299.178-4.421.297-1.114.059-2.537.142-2.537.51l-1.529-.285c1.257-1.719 2.549-3.402 3.817-5.097.794-1.079 1.576-2.157 2.371-3.224 1.232-.178 2.453-.344 3.674-.593 2.964-.616 5.82-1.754 8.475-3.271 1.731-.984 3.39-2.146 4.742-3.367 1.28-1.15 2.287-2.37 3.342-4.22-.095.486-.261 1.47-.426 2.43ZM147.073 145.989c-.7 1.067-1.423 2.11-2.264 3.058-1.47 1.648-3.26 2.999-5.18 4.137-1.494.889-3.07 1.647-4.742 2.098-2.038.545-4.219.616-6.329.356-1.755-.226-3.462-.676-5.157-1.257-2.572-.865-5.108-2.015-7.242-3.651-1.209-.924-2.288-2.015-3.354-3.105 1.576-1.352 3.164-2.703 4.848-3.924 1.564-1.138 3.212-2.145 4.907-3.093.735.486 1.482.971 2.252 1.386 1.245.676 2.584 1.174 3.923 1.648 1.411.51 2.833 1.007 4.279 1.339 1.826.415 3.722.593 5.607.593 1.754 0 3.497-.142 5.192-.545a21.941 21.941 0 0 0 2.963-.937 71.726 71.726 0 0 0 1.991-.829c-.557.912-1.114 1.825-1.694 2.726Z" fill="#fff"/><path d="M154.872 120.658c1.553.226 3.117.486 4.694.534 1.446.047 2.904-.071 4.362-.202-.759.854-1.517 1.707-2.252 2.584-1.126 1.34-2.205 2.715-3.177 4.173-1.09 1.612-2.05 3.319-3.117 4.954a48.68 48.68 0 0 1-5.571 7.065c-1.162 1.221-2.395 2.394-3.853 3.129-1.576.783-3.425 1.043-5.239 1.103-2.086.071-4.137-.142-6.14-.569-2.062-.439-4.066-1.115-6.045-1.838a196.238 196.238 0 0 1-4.611-1.73c1.707-.913 3.438-1.766 5.168-2.62 2.904-1.41 5.808-2.785 8.712-4.196 1.446-.711 2.892-1.422 4.374-2.039 1.008-.415 2.027-.782 3.047-1.161-1.66.308-3.331.604-4.955 1.055-2.513.687-4.931 1.707-7.337 2.714-2.501 1.055-4.991 2.086-7.468 3.188a82.564 82.564 0 0 0-3.117 1.447c.189-1.032.367-2.063.652-3.07.426-1.565 1.09-3.059 1.837-4.517.77-1.517 1.624-2.987 2.679-4.314a18.87 18.87 0 0 1 3.236-3.153c1.398-1.079 2.951-1.98 4.599-2.525 2.003-.652 4.172-.759 6.318-.806 2.643-.071 5.262-.047 7.87.166 1.778.13 3.556.368 5.334.628ZM133.477 18.672c.889-.877 1.79-1.73 2.762-2.5.521-.415 1.066-.795 1.6-1.186-.403.652-.818 1.304-1.197 1.98-.403.699-.771 1.422-1.055 2.18-.557 1.447-.806 3.011-.949 4.576-.118 1.375-.165 2.75-.023 4.113.166 1.648.604 3.272 1.161 4.825.32.912.688 1.79 1.055 2.678-1.09 1.387-2.193 2.75-3.271 4.149-1.304 1.683-2.56 3.402-3.829 5.097-.426-.984-.853-1.98-1.209-2.999a24.1 24.1 0 0 1-1.15-4.931c-.272-2.122-.284-4.279.06-6.377.284-1.742.818-3.438 1.505-5.062.557-1.327 1.209-2.607 2.051-3.757.735-.996 1.6-1.896 2.489-2.785ZM125.002 82.337c1.719-2.324 3.425-4.659 5.215-6.923 1.577-1.991 3.201-3.935 4.765-5.938 1.126-1.422 2.205-2.857 3.295-4.303-1.517 1.21-3.046 2.418-4.492 3.722a42.965 42.965 0 0 0-2.655 2.643c-.699.735-1.363 1.506-2.027 2.264.344-1.043.688-2.098.83-3.176.107-.842.083-1.695.071-2.537 0-1.446.024-2.868-.012-4.29-.024-1.02-.095-2.028-.166-3.035.154-.107.308-.214.45-.32 1.352-.913 2.798-1.695 4.268-2.43a52.516 52.516 0 0 1 4.172-1.85c.569-.224 1.15-.45 1.742-.651 2.336-.818 4.754-1.47 7.207-1.73 1.352-.143 2.715-.167 4.078-.19-.723 1.268-1.446 2.548-2.003 3.887-.486 1.162-.842 2.371-1.233 3.58-.569 1.742-1.221 3.461-1.719 5.216-.628 2.169-1.043 4.397-1.683 6.602-.498 1.73-1.138 3.437-2.169 4.872-.569.782-1.257 1.481-1.98 2.121-.841.735-1.73 1.387-2.702 1.909-1.292.687-2.715 1.138-4.196 1.422-1.008.19-2.051.296-3.011.356-.96.047-1.849.047-3.023-.119-.343-.06-.711-.118-.889.083l-2.133-1.185Z" fill="#fff"/><path d="M125.997 32.505c-.165 2.146-.047 4.315.415 6.401.309 1.41.783 2.774 1.328 4.101.367.901.771 1.79 1.174 2.667-.06.083-.119.166-.178.237-1.091 1.435-2.193 2.845-3.284 4.315-.64.865-1.28 1.754-1.683 2.726-.166.38-.284.77-.675 1.055-.178.143-.439.261-.569.214-.214-.083-.166-.534-.166-.901.012-.522-.072-.877-.155-1.269a25.32 25.32 0 0 0-.521-1.837c-.284-.9-.604-1.754-.83-2.631-.391-1.482-.533-3.058-.533-4.611.012-1.636.19-3.26.533-4.848.427-1.98 1.103-3.9 1.944-5.749.972-2.122 2.157-4.149 3.71-5.855.557-.617 1.174-1.186 1.778-1.755-.557 1.197-1.114 2.395-1.505 3.64-.427 1.327-.664 2.702-.783 4.1ZM128.902 72.44c-.226.912-.534 1.813-.961 2.642-.533 1.055-1.268 2.004-1.991 2.94-.249.332-.51.664-.759 1.007-.379-.699-.758-1.398-.96-2.133-.201-.759-.225-1.553-.249-2.347-.106.58-.225 1.161-.284 1.742a8.78 8.78 0 0 0-.024 2.087c.095.675.297 1.327.498 1.979-.581.77-1.173 1.54-1.742 2.323-1.506 2.05-2.964 4.125-4.469 6.176-.605.841-1.221 1.66-1.837 2.489-.036-1.126-.071-2.264-.178-3.39-.107-1.055-.285-2.098-.368-3.153-.166-1.897-.035-3.829.439-5.666.332-1.256.818-2.453 1.363-3.639.711-1.564 1.494-3.094 2.43-4.528 1.031-1.588 2.24-3.07 3.532-4.457a52.209 52.209 0 0 1 3.177-3.082c.877-.77 1.766-1.529 2.703-2.228.011.984.023 1.956.047 2.94.047 1.766.154 3.544.047 5.31a18.11 18.11 0 0 1-.414 2.987ZM112.722 136.542a19.324 19.324 0 0 1 1.766-5.998 15.251 15.251 0 0 1 2.074-3.248c.925-1.114 2.027-2.074 3.224-2.88 1.34-.901 2.809-1.6 4.327-2.169 1.434-.546 2.928-.972 4.421-1.328 1.233-.284 2.466-.533 3.698-.806 1.067-.249 2.122-.522 3.177-.794-.711.355-1.422.699-2.122 1.055-.901.45-1.801.912-2.643 1.458a18.753 18.753 0 0 0-3.2 2.607 18.436 18.436 0 0 0-2.667 3.402c-.771 1.281-1.364 2.655-1.98 4.03-.652 1.446-1.328 2.893-1.612 4.422-.166.877-.201 1.778-.237 2.667-.356.189-.711.391-1.055.592-2.323 1.328-4.492 2.904-6.673 4.469-.237.178-.486.356-.735.534.024-1.174.035-2.359.047-3.533.012-1.493.012-2.999.19-4.48ZM127.088 84.174c.13.308.51.391.853.474.546.142 1.032.237 1.529.308.771.107 1.601.107 2.419.048a14.281 14.281 0 0 0 2.916-.57 15.79 15.79 0 0 0 3.745-1.73 14.418 14.418 0 0 0 2.596-2.027c.628-.616 1.173-1.292 1.731-1.968-.249.795-.498 1.589-.83 2.36a16.333 16.333 0 0 1-1.553 2.82c-.77 1.138-1.671 2.193-2.608 3.2-.853.925-1.742 1.814-2.702 2.62a28.974 28.974 0 0 1-3.485 2.478c-1.565.936-3.212 1.754-4.99 2.145-1.257.26-2.573.32-3.841.356-.972.023-1.92.059-2.987 0-.628-.036-1.304-.095-1.754.213-.344.237-.557.688-.782 1.114-.427.806-.925 1.494-1.387 2.205-1.316 2.039-2.383 4.327-3.544 6.543-1.079 2.086-2.229 4.113-3.307 6.176l-1.458-.759c1.209-2.359 2.441-4.718 3.662-7.065 1.601-3.082 3.213-6.163 5.109-9.067 1.34-2.027 2.821-3.971 4.279-5.915a940.63 940.63 0 0 0 4.303-5.796l2.133 1.185c-.118.154-.142.45-.047.652Z" fill="#fff"/><path d="M126.578 55.892c-.557.142-1.114.296-1.6.664-.415.32-.758.782-1.079 1.22a60.087 60.087 0 0 0-1.458 2.11c-1.031 1.565-2.145 3.284-3.176 5.038a91.636 91.636 0 0 0-4.066 7.693 90.862 90.862 0 0 0-3.71 9.032c-1.185 3.438-2.122 6.958-2.916 10.514-.403 1.85-.771 3.71-1.138 5.56-.19-.819-.367-1.636-.462-2.454-.261-2.49.403-5.026 1.043-7.515.842-3.32 1.648-6.555 2.868-9.66 1.055-2.727 2.43-5.346 3.829-7.942 1.541-2.88 3.106-5.737 4.765-8.547.913-1.552 1.861-3.093 2.963-4.504.913-1.161 1.932-2.228 2.881-3.354 2.216-2.632 4.03-5.583 5.997-8.404a90.56 90.56 0 0 1 1.233-1.731l1.529.285c0 .047.024.094.06.142.083.106.284.249.497.343.427.202.889.238 1.328.261.96.048 1.849.06 2.762.012 1.351-.071 2.738-.26 4.113-.51 1.576-.284 3.153-.616 4.658-1.197a19.291 19.291 0 0 0 3.39-1.707c1.091-.699 2.075-1.47 2.952-2.074-.095.26-.32.83-.546 1.375a29.188 29.188 0 0 1-1.789 3.544c-1.174 1.932-2.632 3.722-4.694 5.322-1.885 1.47-4.291 2.774-6.662 3.651-.794.296-1.588.545-2.382.759-2.359.64-4.694.96-6.958 1.292-1.411.201-2.797.426-4.232.782ZM112.271 29.601c-.154.273-.189.629-.237.972a59.788 59.788 0 0 1-.675 4.102c-.427 2.204-.925 4.445-1.423 6.685a1389.24 1389.24 0 0 1-1.719 7.538c-.32 1.387-.628 2.774-.948 4.161a.647.647 0 0 1-.403.403.643.643 0 0 1-.569-.083.373.373 0 0 1-.154-.367c.261-1.696.522-3.39.818-5.097.628-3.52 1.399-7.065 2.098-10.479.379-1.86.747-3.698 1.245-5.713.189-.759.391-1.54.166-2.181-.202-.545-.712-.996-1.138-1.494-.534-.628-.925-1.35-1.209-2.097-.949-2.43-.984-5.24-.475-7.86.676-3.496 2.324-6.673 4.208-9.636a58.569 58.569 0 0 1 3.651-5.144c.688-.866 1.399-1.707 2.098-2.549.202 1.055.391 2.122.593 3.177.403 2.217.794 4.433 1.019 6.673.178 1.767.261 3.544.166 5.334-.107 2.016-.45 4.042-1.185 5.891-.593 1.482-1.434 2.845-2.3 4.197-.616.948-1.244 1.884-2.228 2.513-.521.331-1.126.568-1.399 1.054ZM114.654 128.363c-.569.996-1.138 2.003-1.624 3.046a22.293 22.293 0 0 0-1.766 5.56 23.233 23.233 0 0 0-.356 3.259c-.071 1.802.036 3.604.154 5.405-.343.273-.687.546-1.007.83-1.185 1.031-2.276 2.181-3.343 3.331-1.304 1.41-2.584 2.833-3.876 4.243.131-1.031.249-2.062.368-3.093.213-1.932.391-3.876.829-5.749.415-1.743 1.044-3.426 1.719-5.085.64-1.541 1.328-3.059 2.193-4.469.735-1.174 1.588-2.264 2.477-3.331.652-.806 1.34-1.588 2.098-2.276.664-.604 1.399-1.138 2.134-1.671ZM101.686 103.163a16.316 16.316 0 0 0 2.513-2.359c.676-.782 1.269-1.648 1.861-2.5-.284 1.884-.569 3.757-1.09 5.618-.427 1.517-1.02 3.01-1.968 4.243-.936 1.209-2.205 2.146-3.603 2.809-1.79.854-3.793 1.245-5.714 1.079-.96-.083-1.896-.308-2.832-.557-.202-.047-.403-.107-.605-.154 1.185-.783 2.382-1.565 3.532-2.406 1.53-1.126 2.987-2.383 4.54-3.473 1.114-.771 2.288-1.47 3.366-2.3ZM103.227 163.069c-.355 1.423-.592 2.881-.901 4.315-.213.984-.474 1.956-.723 2.928-.189-.64-.379-1.292-.509-1.956a13.43 13.43 0 0 1-.249-2.762c.023-1.754.343-3.508.948-5.156a16.203 16.203 0 0 1 1.92-3.71c1.079-1.6 2.43-2.999 3.817-4.35 1.28-1.245 2.596-2.442 3.923-3.651 1.02.936 2.051 1.873 3.142 2.703 1.943 1.481 4.124 2.667 6.388 3.639 1.992.841 4.042 1.529 6.188 1.849 2.121.308 4.338.272 6.412-.249 1.992-.486 3.853-1.411 5.714-2.335-.913 1.315-1.802 2.311-2.904 3.236-1.138.948-2.513 1.825-3.971 2.548a23.672 23.672 0 0 1-5.002 1.873c-2.395.616-4.813.83-7.219.889-2.252.059-4.481-.036-6.662-.486-2.027-.415-3.994-1.126-5.903-1.98-1.031-.45-2.062-.96-3.082-1.457-.486 1.363-.971 2.714-1.327 4.112ZM105.396 37.78c.06.96-.071 1.944-.13 2.916-.059 1.031-.047 2.063-.036 3.082-.509-1.043-1.019-2.086-1.659-3.046-.581-.866-1.28-1.648-1.837-2.537a10.281 10.281 0 0 1-1.281-3.07c-.343-1.434-.391-2.928-.332-4.41.048-1.197.155-2.394.451-3.532.308-1.209.818-2.347 1.328-3.496-.036.912-.072 1.813-.072 2.738.012 1.292.107 2.607.522 3.793.367 1.031.972 1.98 1.505 2.951.581 1.055 1.079 2.158 1.34 3.32.106.426.166.853.201 1.291ZM104.934 47.061c.048 1.15-.024 2.276-.142 3.461-.119 1.186-.285 2.43-.984 3.32-.261.343-.604.627-.936.912.201-1.09.415-2.193.509-3.319.095-1.233.06-2.5-.332-3.65-.32-.949-.889-1.826-1.493-2.644a24.29 24.29 0 0 0-1.837-2.145c-.747-.77-1.553-1.518-2.134-2.407-.616-.948-.984-2.074-1.161-3.2-.261-1.517-.178-3.058-.107-4.587.38.545.758 1.102 1.161 1.624.629.806 1.34 1.564 2.016 2.323 1.268 1.422 2.465 2.892 3.484 4.516.712 1.126 1.328 2.335 1.66 3.627.178.711.261 1.446.296 2.17Z" fill="#fff"/><path d="M124.907 107.809c-.64.546-1.221 1.15-1.79 1.767 1.268-.51 2.537-1.02 3.793-1.541 2.063-.866 4.09-1.778 6.081-2.774a117.27 117.27 0 0 0 3.224-1.671c-1.304.249-2.608.497-3.888.818a26.368 26.368 0 0 0-3.876 1.28c-1.268.557-2.501 1.232-3.544 2.121Zm-28.412 37.125c.13-2.383.39-4.765.853-7.1.533-2.679 1.34-5.298 2.145-7.906.913-2.964 1.826-5.915 2.964-8.784 1.315-3.33 2.927-6.554 4.563-9.755.214-.403.415-.806.628-1.209l1.458.759a67.242 67.242 0 0 0-1.054 2.074c-1.53 3.177-2.774 6.496-4.031 9.791-.438 1.126-.865 2.252-1.292 3.366.889-1.185 1.79-2.359 2.715-3.52.794-.996 1.6-1.98 2.489-2.892.996-1.044 2.086-1.98 3.212-2.893a44.612 44.612 0 0 1 3.426-2.524c1.268-.854 2.584-1.624 3.911-2.359 1.138-.617 2.276-1.209 3.414-1.814.024-.284.048-.581.107-.865.118-.593.379-1.15.664-1.695a27.144 27.144 0 0 1 1.612-2.655c.557-.806 1.161-1.589 1.861-2.264.936-.913 2.074-1.636 3.224-2.276a35.132 35.132 0 0 1 2.003-1.031c1.138-.534 2.323-1.02 3.544-1.304 1.221-.285 2.489-.38 3.746-.45 1.256-.072 2.513-.12 3.769-.084 2.074.048 4.137.32 6.199.534 1.221.118 2.442.225 3.663.332-.332.379-.664.758-1.007 1.114-.439.45-.901.877-1.304 1.351-.64.759-1.138 1.624-1.743 2.406-.663.83-1.446 1.541-2.24 2.264-1.66 1.518-3.319 3.059-5.204 4.232-1.339.818-2.785 1.458-4.255 2.039-1.648.652-3.319 1.232-5.049 1.422-1.719.202-3.485 0-5.18-.438-.96-.261-1.909-.593-2.892-.664a5.057 5.057 0 0 0-2.11.296c-.783.296-1.446.818-2.134 1.292-1.505 1.043-3.094 1.897-4.563 2.94-1.85 1.292-3.509 2.868-5.097 4.504-1.802 1.873-3.497 3.817-4.967 5.939-1.351 1.967-2.513 4.077-3.378 6.306-1.174 3.01-1.79 6.211-2.229 9.423-.486 3.698-.723 7.408-.841 11.118-.083 2.644-.107 5.287-.142 7.93-.522-2.145-1.055-4.279-1.316-6.46-.201-1.647-.237-3.319-.249-4.99-.012-1.837 0-3.675.107-5.5ZM96.601 167.491a34.49 34.49 0 0 1 .403 6.033c-.012.806-.059 1.6-.154 2.418-.06.628-.154 1.292-.403 1.909-.047.094-.095.201-.166.284-.237.296-.77.415-1.09.285-.344-.143-.427-.581-.498-.996-.225-1.185-.415-2.11-.616-3.118a134.695 134.695 0 0 0-1.032-4.599 104.695 104.695 0 0 0-3.082-10.324c-.9-2.536-1.908-5.061-2.951-7.55a179.52 179.52 0 0 0-4.469-9.839c-.841-1.695-1.718-3.378-2.584-5.061l.463-.107c.45-.106.9-.237 1.35-.391a9.634 9.634 0 0 0 2.632-1.434c.25-.202.486-.403.723-.605.427.901.866 1.802 1.292 2.715 1.221 2.655 2.3 5.357 3.355 8.084a239.51 239.51 0 0 1 3.212 8.866c.83 2.501 1.624 5.026 2.311 7.562.084.297.166.605.238.901.426 1.636.806 3.284 1.066 4.967ZM92.275 50.25c.723 1.683 1.54 3.33 2.584 4.812.818 1.15 1.778 2.205 2.738 3.26-.936.782-1.873 1.553-2.774 2.37-1.47 1.328-2.845 2.762-4.16 4.244a79.77 79.77 0 0 0-2.24 2.643c-1.162-2.026-2.324-4.042-3.403-6.116a59.553 59.553 0 0 1-2.584-5.583c-1.114-2.833-1.943-5.784-2.584-8.771-.675-3.141-1.15-6.33-1.825-9.471-.296-1.422-.64-2.821-.972-4.22a42.11 42.11 0 0 1 1.316-1.576 36.79 36.79 0 0 1 1.908-1.944c.782-.77 1.589-1.553 2.572-2.015.629-.285 1.316-.45 2.016-.427.675.012 1.35.201 1.896.569.7.486 1.173 1.28 1.482 2.098.51 1.328.604 2.714.699 4.09.166 2.702.296 5.404.794 8.036.51 2.75 1.423 5.417 2.537 8ZM86.799 113.475c.58-.367 1.137-.758 1.706-1.138.605.38 1.21.759 1.838 1.079.213.107.426.202.64.296 1.47.593 3.13.759 4.753.641 1.363-.095 2.703-.38 3.9-.961 1.256-.604 2.347-1.517 3.449-2.43-.367.771-.735 1.553-1.162 2.288a12.398 12.398 0 0 1-1.315 1.849c-.557.64-1.186 1.209-1.85 1.766-1.232 1.043-2.56 2.004-4.006 2.703a13.987 13.987 0 0 1-3.78 1.15c-1.53.237-3.118.225-4.576-.214a8.83 8.83 0 0 1-2.762-1.458c-.119-.083-.225-.177-.344-.272-.83-.688-1.54-1.494-2.252-2.312a68.846 68.846 0 0 0 3.01-1.41 35.06 35.06 0 0 0 2.75-1.577ZM69.908 119.663c1.35-.297 2.69-.581 4.03-.937 1.007-.261 2.027-.557 2.999-.924.699-.273 1.386-.581 2.074-.877.439.367.877.735 1.328 1.09a67.317 67.317 0 0 0 2.05 1.6c.854.64 1.73 1.281 2.418 2.087.747.889 1.269 1.991 1.565 3.141.344 1.28.427 2.631.154 3.911a8.134 8.134 0 0 1-1.707 3.449 8.662 8.662 0 0 1-2.797 2.241c-.64.32-1.304.557-2.004.699-.343.095-.699.154-1.055.19a9.914 9.914 0 0 1-3.39-.261c-1.457-.356-2.844-1.019-3.958-2.027-1.15-1.031-2.027-2.418-2.347-3.911a7.462 7.462 0 0 1-.072-2.762c.178-1.269.605-2.49.747-3.746.107-.972.036-1.968-.035-2.963ZM82.946 106.79c-.865 1.422-1.908 2.738-2.963 4.054.782-1.683 1.564-3.355 2.288-5.062a97.564 97.564 0 0 0 2.998-7.823c.89-2.608 1.66-5.25 2.43-7.882-.865 1.66-1.73 3.319-2.536 5.002-1.375 2.857-2.584 5.761-3.77 8.736-1.292 3.212-2.536 6.507-4.646 9.162-1.09 1.363-2.394 2.561-3.71 3.758-.427-2.62-.854-5.227-.937-7.859-.142-4.469.712-8.985 2.146-13.252 1.932-5.76 4.943-11.07 8.32-16.085 3.877-5.772 8.263-11.165 13.253-16.06 2.216-2.182 4.551-4.256 7.23-5.762 2.051-1.15 4.303-1.98 6.603-2.536 1.173-.285 2.358-.51 3.556-.581 1.102-.06 2.204.012 3.307.071-2.561 2.074-4.682 4.018-6.472 6.223a27.526 27.526 0 0 0-4.635 8.44 25.747 25.747 0 0 0-1.114 4.528c-.415 2.726-.308 5.44-.356 8.12-.059 3.2-.343 6.364-1.078 9.47-.806 3.402-2.146 6.745-4.173 9.566-2.074 2.856-4.86 5.179-7.775 7.218-1.826 1.28-3.71 2.454-5.69 3.45-1.92.972-3.923 1.789-5.927 2.607.937-1.138 1.873-2.276 2.644-3.508.806-1.304 1.434-2.727 1.967-4.161.688-1.861 1.197-3.757 1.719-5.654-.782 2.003-1.576 3.995-2.679 5.82Z" fill="#fff"/><path d="M80.836 59.258c.913 2.3 1.92 4.576 3.213 6.662.817 1.304 1.742 2.525 2.667 3.757-.154.19-.309.392-.474.581-1.802 2.252-3.616 4.505-5.346 6.828-2.715 3.674-5.192 7.562-7.041 11.746-1.28 2.893-2.264 5.939-2.869 9.033-.533 2.69-.794 5.416-1.055 8.155-.415-2.525-.841-5.038-1.09-7.575-.225-2.264-.32-4.54-.344-6.815-.035-4.433.225-8.867.842-13.252a86.857 86.857 0 0 1 3.817-15.955c.9-2.62 1.92-5.204 3.01-7.74.522-1.245 1.067-2.477 1.612-3.71.984 2.773 1.956 5.547 3.058 8.285ZM65.107 26.555c.759-.391 1.482-.818 2.394-1.02.356-.082.724-.13.996 0 .498.226.605 1.044.593 1.755-.024 1.173-.403 2.05-.83 2.951-.367.77-.759 1.565-1.233 2.3-.237.367-.486.711-.734 1.067-.143-.45-.297-.89-.475-1.328-.403-.996-.972-1.92-1.635-2.774-.486-.616-1.044-1.197-1.589-1.766.854-.39 1.707-.77 2.513-1.185ZM73.5 29.957c.153.806.153 1.636-.036 2.406-.226.901-.712 1.73-1.21 2.549-1.517 2.513-3.188 4.871-4.954 7.183-1.221 1.6-2.49 3.165-3.722 4.753a358.458 358.458 0 0 0-3.71 4.955c1.185-1.09 2.382-2.181 3.532-3.26 1.541-1.446 3.01-2.857 4.386-4.41 1.292-1.458 2.49-3.046 3.734-4.836a45.563 45.563 0 0 0 2.228-3.425c.249-.462.486-.901.711-1.34.273.747.546 1.506.77 2.264.558 1.92.842 3.9 1.103 5.892.225 1.683.427 3.366.64 5.06a298.55 298.55 0 0 0-1.066 1.98c-.747 1.423-1.447 2.88-2.146 4.327a406.919 406.919 0 0 0-2.418 5.144 93.515 93.515 0 0 0-2.584-.818 46.964 46.964 0 0 0-5.701-1.375c-2.88-.498-5.809-.675-8.736-.652h-.463c.89-1.67 1.778-3.33 2.75-4.942 2.016-3.355 4.386-6.496 6.721-9.649 1.423-1.92 2.833-3.852 4.16-5.808 1.08-1.6 2.11-3.224 3.011-4.967.403-.806.795-1.635.925-2.512.118-.818.024-1.672-.083-2.537.368.45.747.889 1.067 1.387.51.782.912 1.694 1.09 2.63ZM58.86 43.363c-1.66 2.145-3.129 4.16-4.468 6.389-1.127 1.885-2.158 3.911-3.2 5.938l-1.388-.32a65.5 65.5 0 0 0-2.643-.569c-.806-.142-1.612-.272-2.418-.403a473.44 473.44 0 0 1 2.785-3.959c1.115-1.552 2.264-3.081 3.343-4.658 1.114-1.636 2.17-3.307 3.33-4.895.724-.984 1.483-1.944 2.312-2.833.237-.25.486-.498.723-.747a.755.755 0 0 1 .972-.083c.261.178.534.356.795.545.687.498 1.35 1.043 1.872 1.719.048.071.107.142.166.213.19.273.19.605 0 .877-.735.937-1.47 1.873-2.18 2.786Z" fill="#fff"/><path d="M42.752 33.785c-.949.57-1.73 1.376-2.43 2.217-.38.474-.747.96-1.103 1.446-.782-.486-1.564-.972-2.406-1.351-.972-.45-2.015-.759-3.07-.984-.604-.13-1.22-.237-1.825-.344.913-1.292 1.825-2.584 2.916-3.721a17.136 17.136 0 0 1 4.741-3.462c1.932-.96 4.03-1.576 6.152-1.884 2.24-.332 4.528-.332 6.804-.06 2.015.25 4.018.712 5.772 1.672 1.482.817 2.774 1.991 3.864 3.319.795.972 1.494 2.026 1.968 3.176.237.546.415 1.114.605 1.683-.226.403-.439.806-.676 1.21-.32.545-.664 1.078-1.02 1.611a24.399 24.399 0 0 0-1.505-1.612c-.723-.71-1.493-1.327-2.536-1.766-.96-.39-2.146-.616-2.845-.059-.297.237-.51.628-.735.984-.344.533-.735.984-1.126 1.434-.7-.889-1.399-1.778-2.24-2.513-1.15-.995-2.573-1.707-4.102-1.967-1.778-.297-3.686.047-5.203.971ZM62.084 122.579c1.944-.546 3.758-1.482 5.572-2.43.082 1.007.165 2.003.106 2.999a11.048 11.048 0 0 1-1.02 3.911 11.836 11.836 0 0 1-3.129 4.042c-1.315 1.091-2.856 1.897-4.492 2.454-1.316.45-2.69.747-4.066.806-1.635.059-3.271-.214-4.907-.498.557-.095 1.114-.178 1.66-.332.497-.13.983-.308 1.481-.521.949-.403 1.909-.937 2.691-1.577 1.304-1.067 2.11-2.43 2.655-3.994.45-1.316.711-2.774.89-4.386.864-.083 1.73-.249 2.56-.474ZM41.768 115.135c1.849.984 3.65 2.05 5.44 3.141 1.305.794 2.608 1.6 3.912 2.394-2.193-.367-4.386-.735-6.52-1.315-2.465-.676-4.847-1.636-7.218-2.62-4.741-1.991-9.388-4.137-14.26-5.761-4.835-1.6-9.897-2.702-14.97-2.939-2.406-.107-4.812-.036-7.219.047.688-1.849 1.92-3.414 3.414-4.682 2.17-1.837 4.896-3.011 7.681-3.793 4.255-1.185 8.63-1.434 12.956-1.114 4.812.343 9.565 1.375 14.152 2.928 4.481 1.517 8.796 3.532 12.707 6.151 2.762 1.861 5.31 4.031 7.646 6.401 1.564 1.577 3.022 3.26 4.48 4.931-.664.391-1.328.783-2.039 1.067a8.874 8.874 0 0 1-3.591.652c-1.612-.036-3.177-.498-4.694-1.055-2.525-.936-4.908-2.134-7.302-3.343-2.892-1.469-5.784-2.951-8.83-4.053-2.205-.795-4.481-1.399-6.757-1.992a180.35 180.35 0 0 1 4.92 2.051c2.062.901 4.1 1.849 6.092 2.904ZM44.139 47.038c.96-.486 1.908-.972 2.844-1.494a80.086 80.086 0 0 0 2.17-1.28 22.302 22.302 0 0 1-.972 1.529c-.332.45-.688.877-1.032 1.304-.39.474-.77.96-1.15 1.434-.817-.047-1.647-.083-2.453-.213a19.152 19.152 0 0 1-1.387-.285c.652-.332 1.316-.664 1.98-.995ZM50.041 130.153c-1.955.32-3.994.059-5.843-.628-1.885-.712-3.58-1.861-5.038-3.236-1.126-1.079-2.11-2.288-3.082-3.497 1.41.936 2.821 1.861 4.362 2.56 1.352.605 2.821 1.031 4.291 1.067 1.375.024 2.774-.296 4.042-.865a9.56 9.56 0 0 0 2.762-1.873c.344-.344.664-.711.972-1.079 1.778.273 3.544.546 5.322.546-.178.628-.356 1.256-.628 1.849-.522 1.161-1.363 2.181-2.37 2.999a10.191 10.191 0 0 1-4.79 2.157ZM46.51 43.778c-1.139.474-2.288.913-3.332 1.529-.604.356-1.173.77-1.73 1.197.106-.45.201-.889.391-1.316a4.04 4.04 0 0 1 1.624-1.849c.735-.426 1.588-.592 2.442-.604.83-.024 1.66.107 2.477.225-.628.273-1.245.557-1.873.818Z" fill="#fff"/><path d="M46.272 34.65c1.304-.023 2.608.522 3.71 1.281.949.652 1.755 1.458 2.477 2.323.19.225.368.463.558.7-.19.213-.38.414-.558.628-.201.237-.379.462-.569.699-.569-.462-1.126-.936-1.706-1.41-1.008-.806-2.098-1.6-3.32-1.873-1.102-.25-2.31-.071-3.413.296-.77.249-1.494.593-2.205.936.285-.497.581-1.007.937-1.458a5.89 5.89 0 0 1 2.026-1.635 4.832 4.832 0 0 1 2.063-.486Z" fill="#fff"/><path d="M47.73 39.131c.522.285.984.652 1.423 1.08.296.295.58.616.746 1.007.107.248.166.521.095.817-.047.214-.166.427-.32.498-.237.107-.545-.118-.841-.32-.605-.426-1.091-.723-1.66-.877-.747-.213-1.636-.178-2.454.024a5.766 5.766 0 0 0-2.133 1.079 4.556 4.556 0 0 0-.901.948c-.356.533-.557 1.15-.759 1.778-.047-.652-.083-1.292-.047-1.944.035-.794.178-1.6.521-2.335.368-.782.984-1.494 1.743-1.92a4.22 4.22 0 0 1 2.11-.522c.699.012 1.41.178 2.05.474.143.06.285.13.427.213ZM40.855 38.823c-.498.865-1.007 1.743-1.244 2.69-.214.854-.214 1.767-.166 2.68.023.675.083 1.351.32 1.956.213.557.569 1.066.936 1.564-.498.036-.948.047-1.434.071-.593.036-1.233.083-1.873-.07-.332-.084-.664-.214-.877-.428-.214-.201-.32-.497-.403-.794-.202-.806-.26-1.707-.071-2.596.178-.794.545-1.576.96-2.216.533-.806 1.161-1.375 1.885-1.885.569-.403 1.209-.758 1.967-.972ZM40.903 53.96c-1.447-.13-2.893-.214-4.35-.32-1.15-.095-2.3-.202-3.462-.308-.178-.427-.355-.854-.604-1.233-.38-.545-.901-.996-1.352-1.494-.51-.58-.912-1.244-1.315-1.908 1.114.284 2.228.569 3.342.806 1.956.415 3.947.7 5.95.83 1.79.106 3.604.095 5.406.095-.391.675-.77 1.35-1.197 2.003-.368.569-.759 1.102-1.15 1.647-.427-.035-.842-.083-1.268-.118ZM34.099 45.082c.107.806.391 1.576.687 2.335-.687-.06-1.386-.107-2.05-.202-.866-.118-1.695-.308-2.584-.521-.392-.095-.794-.19-1.103-.403-.58-.427-.77-1.292-.96-2.086-.237-.96-.474-1.802-.628-2.703-.178-1.02-.249-2.11.071-3.153.154-.533.427-1.055.842-1.387.332-.237.747-.367 1.173-.427.806-.118 1.612.036 2.406.214 1.067.249 2.11.545 3.153.877a97.78 97.78 0 0 1 2.454.794c-.58.545-1.174 1.09-1.707 1.683-.533.581-1.007 1.198-1.328 1.909a5.477 5.477 0 0 0-.426 3.07ZM38.437 86.533c-.38-2.762-.438-5.595-.083-8.357.214-1.624.57-3.224.937-4.812-.522 1.256-1.044 2.524-1.458 3.828a23.214 23.214 0 0 0-.984 5.002c-.166 2.016-.048 4.054.142 6.07.225 2.346.569 4.681 1.256 6.922.332 1.078.747 2.145 1.162 3.2-1.102-.806-2.205-1.624-3.188-2.56-.996-.949-1.873-2.015-2.715-3.118a58.845 58.845 0 0 1-3.603-5.263c-1.126-1.849-2.17-3.816-2.442-5.938a9.927 9.927 0 0 1 .06-2.715c.189-1.197.592-2.347 1.09-3.449.64-1.422 1.446-2.762 2.323-4.066 1.79-2.678 3.829-5.239 6.341-7.254a21.383 21.383 0 0 1 6.01-3.402c3.45-1.28 7.183-1.612 10.893-1.635 3.473-.024 6.91.225 10.265.912 2.134.427 4.232 1.031 6.33 1.636-1.043 2.904-2.098 5.82-2.892 8.795-1.245 4.682-1.85 9.542-2.146 14.402-.296 4.907-.26 9.827.32 14.686a68.967 68.967 0 0 0 2.276 11.071c.605 2.087 1.304 4.149 2.003 6.2-.889.035-1.79.059-2.667.189-.687.095-1.363.273-2.05.439a36.254 36.254 0 0 0-1.174-1.814c-.912-1.28-1.98-2.453-3.093-3.567a54.703 54.703 0 0 0-6.627-5.666c-2.346-1.695-4.824-3.224-7.431-4.445-1.743-.818-3.545-1.506-5.346-2.193a11.534 11.534 0 0 0-.403-1.589c-.178-.497-.427-.983-.652-1.47-.676-1.505-1.079-3.105-1.446-4.717-.415-1.766-.77-3.52-1.008-5.322ZM24.059 54.209c2.951.853 6.045 1.209 9.115 1.564 2.205.261 4.386.51 6.59.688 1.162.083 2.324.154 3.474.32.818.107 1.623.273 2.43.438-.214.06-.427.107-.64.155-3.296.806-6.508 2.18-9.199 4.207-2.335 1.767-4.29 4.019-5.986 6.449-.272.39-.533.782-.794 1.185-.687-1.588-1.375-3.177-2.157-4.718a36.928 36.928 0 0 0-3.224-5.168c-.972-1.303-2.04-2.524-2.928-3.876-.64-.983-1.174-2.015-1.719-3.046 1.66.652 3.32 1.316 5.038 1.802ZM19.282 48.495c.273-.77.64-1.47 1.138-2.062.58-.7 1.328-1.245 2.122-1.719.877-.521 1.801-.972 2.845-1.292.165.688.331 1.375.51 2.063.236.936.473 1.873.805 2.773.403 1.067.937 2.098 1.648 2.987.474.605 1.02 1.138 1.576 1.684-1.256-.237-2.524-.474-3.78-.747-1.47-.32-2.94-.688-4.422-1.031-.522-.13-1.055-.25-1.565-.439-.26-.107-.521-.225-.723-.427a1.21 1.21 0 0 1-.284-.474c-.155-.415-.024-.877.13-1.316Z" fill="#fff"/><path d="M32.155 95.245c-1.387-.842-2.774-1.671-4.09-2.62-1.398-.995-2.714-2.11-4.089-3.153-1.399-1.066-2.868-2.05-4.338-3.022 1.078 1.043 2.145 2.098 3.26 3.117 1.517 1.387 3.093 2.703 4.599 4.113.805.759 1.588 1.541 2.453 2.229.617.51 1.28.96 1.944 1.41-1.138-.225-2.276-.439-3.414-.675-1.375-.273-2.75-.57-4.149-.664-1.078-.071-2.157-.024-3.235.023-1.316-1.612-2.632-3.224-4.03-4.753a65.33 65.33 0 0 0-4.303-4.196c-1.589-1.434-3.224-2.81-5.228-3.65-1.742-.736-3.745-1.08-4.907-2.55-.427-.533-.735-1.232-.747-1.896-.012-1.055.723-2.027 1.41-2.94.593-.793 1.15-1.552 1.482-2.441a4.632 4.632 0 0 0 .309-1.79c-.036-.96-.415-1.885-.617-2.821-.272-1.22-.225-2.465-.047-3.734.284-2.05.948-4.148 2.359-5.559.83-.806 1.908-1.387 3.022-1.778 2.015-.7 4.16-.759 6.27-.984a82.428 82.428 0 0 0 2.928-.391c1.127 1.837 2.264 3.686 3.331 5.56 1.008 1.765 1.956 3.579 2.774 5.428.747 1.671 1.375 3.39 2.015 5.097-.38.782-.723 1.576-1.031 2.382-.652 1.72-1.114 3.497-1.577 5.287-.592-1.055-1.173-2.122-1.801-3.165-.89-1.47-1.873-2.904-2.478-4.492-.426-1.09-.663-2.252-.9-3.414-.024 1.434-.036 2.868.248 4.232.474 2.204 1.73 4.22 2.916 6.187.723 1.209 1.423 2.406 2.015 3.663.747 1.6 1.328 3.295 2.205 4.824.64 1.114 1.446 2.134 2.252 3.153 1.055 1.328 2.122 2.655 3.189 3.983Z" fill="#fff"/></svg>
